<svg xmlns="http://www.w3.org/2000/svg" width="24" height="24" viewBox="0 0 24 24"><mask id="SVGA9GA4JbJ" width="22" height="22" x="1" y="1" maskUnits="userSpaceOnUse" style="mask-type:luminance"><path fill="#fff" d="M1 1h22v22H1z"/></mask><g fill="none" mask="url(#SVGA9GA4JbJ)"><path fill="#ff808c" d="M12.458 14.292a.917.917 0 0 0-.916.916v4.584a.917.917 0 0 0 .916.916h1.375v1.834l2.292-1.834h5.5a.917.917 0 0 0 .916-.916v-4.584a.917.917 0 0 0-.916-.916z"/><path fill="#ffef5e" d="M11.542 1.458a.917.917 0 0 1 .916.917v4.583a.917.917 0 0 1-.916.917h-1.375v2.292L7.875 7.875h-5.5a.917.917 0 0 1-.916-.917V2.375a.917.917 0 0 1 .916-.917z"/><path fill="#fff9bf" d="M2.375 1.458a.917.917 0 0 0-.916.917v4.583a.917.917 0 0 0 .916.917h.589L9.38 1.458z"/><path fill="#ffbfc5" d="M12.458 14.292a.917.917 0 0 0-.916.916v4.584a.917.917 0 0 0 .916.916h.589l6.416-6.416z"/><path stroke="#191919" stroke-linecap="round" stroke-linejoin="round" d="M12.458 14.292a.917.917 0 0 0-.916.916v4.584a.917.917 0 0 0 .916.916h1.375v1.834l2.292-1.834h5.5a.917.917 0 0 0 .916-.916v-4.584a.917.917 0 0 0-.916-.916zm-.916-12.834a.917.917 0 0 1 .916.917v4.583a.917.917 0 0 1-.916.917h-1.375v2.292L7.875 7.875h-5.5a.917.917 0 0 1-.916-.917V2.375a.917.917 0 0 1 .916-.917zm1.833 14.667h6.875m-6.875 1.833h4.583" stroke-width="1"/><path fill="#66e1ff" stroke="#191919" stroke-linecap="round" stroke-linejoin="round" d="M14.292 12.458a3.973 3.973 0 0 1 4.125-4.125a3.973 3.973 0 0 1 4.125 4.125z" stroke-width="1"/><path fill="#c77f67" stroke="#191919" stroke-linecap="round" stroke-linejoin="round" d="M21.141 3.823a3.26 3.26 0 0 1-1.576.385a3.45 3.45 0 0 1-3.099-1.934a2.75 2.75 0 0 1 4.675 1.55" stroke-width="1"/><path fill="#ffdda1" stroke="#191919" stroke-linecap="round" stroke-linejoin="round" d="M21.167 4.208a2.75 2.75 0 1 1-4.703-1.934a3.45 3.45 0 0 0 3.098 1.934a3.26 3.26 0 0 0 1.577-.385q.027.193.027.385" stroke-width="1"/><path fill="#66e1ff" stroke="#191919" stroke-linecap="round" stroke-linejoin="round" d="M1.458 22.542a3.974 3.974 0 0 1 4.125-4.125a3.973 3.973 0 0 1 4.125 4.125z" stroke-width="1"/><path fill="#c77f67" stroke="#191919" stroke-linecap="round" stroke-linejoin="round" d="M8.308 13.925a3.25 3.25 0 0 1-1.55.367a3.45 3.45 0 0 1-3.107-1.953a2.75 2.75 0 0 1 4.657 1.586" stroke-width="1"/><path fill="#ffdda1" stroke="#191919" stroke-linecap="round" stroke-linejoin="round" d="M8.334 14.292a2.75 2.75 0 1 1-4.685-1.953a3.45 3.45 0 0 0 3.108 1.953a3.24 3.24 0 0 0 1.549-.367q.027.181.028.367" stroke-width="1"/><path stroke="#191919" stroke-linecap="round" stroke-linejoin="round" d="M3.65 12.34v-.01m6.517-9.038H3.29m4.585 1.833H3.292" stroke-width="1"/></g></svg>