<svg xmlns="http://www.w3.org/2000/svg" width="24" height="24" viewBox="0 0 24 24"><g fill="none" fill-rule="evenodd" clip-rule="evenodd"><path fill="#fcae03" d="M7.213 18.205a.33.33 0 0 0-.51-.41a2.94 2.94 0 0 1-2.17 1.2a2.76 2.76 0 0 1-2.088-1a3 3 0 0 1-.22-2.669a2.2 2.2 0 0 1 2.069-1.52c.415-.012.828.053 1.22.19c.377.14.718.362 1 .65a.3.3 0 0 0 .541-.125a.3.3 0 0 0-.052-.224a3.3 3.3 0 0 0-1.2-.91a4.3 4.3 0 0 0-1.49-.39a3.05 3.05 0 0 0-3.088 2a3.93 3.93 0 0 0 .35 3.678q.192.19.43.32a5 5 0 0 0-.82.68q-.274.307-.47.67a4.5 4.5 0 0 0-.33.74a8 8 0 0 0-.38 1.809a.33.33 0 0 0 .385.382a.32.32 0 0 0 .255-.282q.257-.79.64-1.53l.33-.6c.11-.19.23-.38.35-.57q.31-.466.67-.9a3.5 3.5 0 0 0 1.999.39a3.68 3.68 0 0 0 2.579-1.579m16.455 2.879a4.5 4.5 0 0 0-.33-.74a3.5 3.5 0 0 0-.47-.67a5 5 0 0 0-.82-.679q.215-.154.38-.36a3.93 3.93 0 0 0 .35-3.639a3.05 3.05 0 0 0-3.089-2a4.3 4.3 0 0 0-1.46.36a3.3 3.3 0 0 0-1.2.91a.283.283 0 1 0 .42.38a2.7 2.7 0 0 1 1-.65a3.4 3.4 0 0 1 1.22-.18a2.2 2.2 0 0 1 2.07 1.52a3 3 0 0 1-.18 2.66a2.76 2.76 0 0 1-2.09.92a2.94 2.94 0 0 1-2.17-1.12a.33.33 0 0 0-.509.41a3.68 3.68 0 0 0 2.63 1.599a3.5 3.5 0 0 0 1.949-.39q.358.432.67.9c.12.19.24.38.35.57l.33.6q.38.729.639 1.509a.32.32 0 0 0 .38.26a.33.33 0 0 0 .26-.36a8 8 0 0 0-.33-1.81"/><path fill="#fcae03" d="M16.51 19.055a4.4 4.4 0 0 0-.56-.8a6 6 0 0 0-1.14-1a4.17 4.17 0 0 0 1.26-3.398a3.88 3.88 0 0 0-3.898-3.86a4.2 4.2 0 0 0-4.35 4a3.6 3.6 0 0 0 2.18 3.438q-.851.476-1.6 1.1a5.8 5.8 0 0 0-1.149 1.33a3.84 3.84 0 0 0-.6 2.929a.323.323 0 1 0 .64-.09a3.43 3.43 0 0 1 .84-2.24c.3-.4.65-.79 1-1.169a24 24 0 0 1 1.639-1.6a5.5 5.5 0 0 0 1.2.17a.29.29 0 0 0 .31-.27a.29.29 0 0 0-.27-.3c-2.18-.2-3.21-1.549-3.24-2.999c.296.156.618.255.95.29a1.5 1.5 0 0 0 .47 0q.244-.035.47-.13a2.37 2.37 0 0 0 1-.67s0-.08.05-.11l.38.2q.508.239 1.06.35c.688.111 1.39.111 2.079 0a2.92 2.92 0 0 1-2.39 3.2a.33.33 0 0 0-.29.36a.32.32 0 0 0 .36.28c.477-.04.94-.18 1.36-.41q.505.551.91 1.18c.15.229.3.459.44.699s.27.49.4.75c.305.608.552 1.244.74 1.9a.33.33 0 0 0 .593.111a.32.32 0 0 0 .046-.242a9.7 9.7 0 0 0-.49-2.06a5.5 5.5 0 0 0-.4-.939m-5.768-5.608h-.48l-.48.07q-.49.135-1 .17a3.08 3.08 0 0 1 1.22-1.84a4.8 4.8 0 0 0 1.12 1.44a.1.1 0 0 0 .05 0q-.204.11-.43.16m2.6-.2a6 6 0 0 1-.84-.34a5.7 5.7 0 0 1-1.91-1.45a4 4 0 0 1 1.61-.35a2.81 2.81 0 0 1 2.879 2.43a7 7 0 0 1-1.74-.29"/><path fill="#fcae03" d="M12.461 19.055a.29.29 0 0 0-.58 0c-.09.36-.2.69-.26 1.05a2.4 2.4 0 0 0 0 .46q-.015.225 0 .45c0 .36.14.69.21 1.05a.31.31 0 0 0 .33.309a.32.32 0 0 0 .32-.33c0-.35.13-.68.17-1a3 3 0 0 0 0-.44q.023-.224 0-.45c-.03-.42-.13-.74-.19-1.099"/><path fill="#45d0ff" d="M13.771 5.73L12.561 5s-.3-.21-.42-.27a.58.58 0 0 0-.67.11c-.38.41-.779.79-1.169 1.179c-.6.59-1.19 1.16-1.82 1.7a26 26 0 0 1-2.209 1.649a.283.283 0 1 0 .3.48a23 23 0 0 0 3-1.94a27 27 0 0 0 2.379-1.999l1.24.75l5.098 3.339a.33.33 0 0 0 .45-.1a.32.32 0 0 0-.09-.45c-1.33-.93-2.56-2-3.86-3c-.34-.239-.679-.449-1.019-.719"/><path fill="#45d0ff" d="M5.644 6.759c.68-.44 1.36-.92 1.999-1.41c1-.73 2-1.49 2.94-2.24l1.309-.999l.11-.11s.27.16.32.21c.35.33.68.66 1 1c.16.13.33.27.5.39a21 21 0 0 0 2.099 1.3c1.06.62 2.149 1.169 3.199 1.759a.32.32 0 0 0 .44-.11a.34.34 0 0 0-.11-.45c-1-.64-2.05-1.26-3.07-1.94q-.99-.654-1.9-1.419l-1.409-1.35a5.5 5.5 0 0 0-.54-.51a.9.9 0 0 0-.41-.16a.7.7 0 0 0-.37.07a5 5 0 0 0-.51.41L9.933 2.3c-.93.82-1.81 1.7-2.739 2.45c-.62.54-1.24 1-1.88 1.539a.29.29 0 1 0 .33.47"/></g></svg>