<svg fill="#FAB005" xmlns="http://www.w3.org/2000/svg"  viewBox="0 0 64 64" width="64px" height="64px"><path d="M 32 5 C 30.067 5 28.5 6.567 28.5 8.5 L 28.5 9 C 28.5 10.933 30 13 32 13 C 34 13 35.5 10.933 35.5 9 L 35.5 8.5 C 35.5 6.567 33.933 5 32 5 z M 18.519531 12.072266 C 16.863531 12.072266 15.519531 13.416266 15.519531 15.072266 L 15.519531 15.5 C 15.519531 17.156 16.805531 18.927734 18.519531 18.927734 C 20.233531 18.927734 21.517578 17.156 21.517578 15.5 L 21.517578 15.072266 C 21.517578 13.416266 20.175531 12.072266 18.519531 12.072266 z M 45.480469 12.072266 C 43.824469 12.072266 42.482422 13.416266 42.482422 15.072266 L 42.482422 15.5 C 42.482422 17.156 43.766469 18.927734 45.480469 18.927734 C 47.194469 18.927734 48.480469 17.157 48.480469 15.5 L 48.480469 15.072266 C 48.480469 13.416266 47.136469 12.072266 45.480469 12.072266 z M 32 16 C 28.94 16 26.300625 16.829766 25.140625 17.259766 C 24.730625 17.409766 24.390391 17.690547 24.150391 18.060547 L 20.419922 23.970703 C 19.929922 24.750703 20.030156 25.749922 20.660156 26.419922 L 25.990234 32.029297 L 25.550781 55.480469 L 25.050781 55.720703 C 24.710781 55.890703 24.5 56.239141 24.5 56.619141 L 24.5 58 L 28.599609 58 C 29.109609 58 29.539609 57.609609 29.599609 57.099609 L 31.5 39 L 32.5 39 L 34.400391 57.099609 C 34.460391 57.609609 34.890391 58 35.400391 58 L 39.5 58 L 39.5 56.619141 C 39.5 56.239141 39.289219 55.890703 38.949219 55.720703 L 38.449219 55.480469 L 38.009766 32.029297 L 43.339844 26.419922 C 43.969844 25.749922 44.070078 24.750703 43.580078 23.970703 L 39.849609 18.060547 C 39.609609 17.690547 39.269375 17.409766 38.859375 17.259766 C 37.699375 16.829766 35.06 16 32 16 z M 18.519531 21 C 16.159531 21 14.080156 21.549453 12.910156 21.939453 C 12.300156 22.149453 11.859297 22.690078 11.779297 23.330078 L 10.990234 29.320312 C 10.950234 29.670313 10.950234 30.029141 10.990234 30.369141 L 11.970703 37.660156 L 13.130859 40.650391 L 12.910156 55.779297 L 12.480469 55.990234 C 12.180469 56.140234 11.990234 56.449297 11.990234 56.779297 L 11.990234 58 L 15.599609 58 C 16.049609 58 16.430703 57.660937 16.470703 57.210938 L 18.080078 41.259766 L 18.960938 41.259766 L 20.640625 57.210938 C 20.680625 57.660937 21.059766 58 21.509766 58 L 22.5 58 L 22.5 56.619141 C 22.5 55.709141 22.900312 54.880547 23.570312 54.310547 L 23.980469 32.810547 L 19.210938 27.800781 C 17.950938 26.460781 17.760469 24.450156 18.730469 22.910156 L 19.890625 21.060547 C 19.450625 21.020547 18.989531 21 18.519531 21 z M 45.480469 21 C 45.010469 21 44.549375 21.020547 44.109375 21.060547 L 45.269531 22.900391 C 46.239531 24.450391 46.050781 26.459062 44.800781 27.789062 L 40.019531 32.810547 L 40.429688 54.320312 C 41.109688 54.890312 41.5 55.719141 41.5 56.619141 L 41.5 58 L 42.490234 58 C 42.940234 58 43.319375 57.660937 43.359375 57.210938 L 45.039062 41.259766 L 45.919922 41.259766 L 47.529297 57.210938 C 47.569297 57.660937 47.950391 58 48.400391 58 L 52.009766 58 L 52.009766 56.779297 C 52.009766 56.449297 51.819531 56.140234 51.519531 55.990234 L 51.089844 55.779297 L 50.869141 40.650391 L 52.029297 37.660156 L 53.009766 30.369141 C 53.049766 30.029141 53.049766 29.670312 53.009766 29.320312 L 52.220703 23.330078 C 52.140703 22.690078 51.699844 22.149453 51.089844 21.939453 C 49.919844 21.549453 47.840469 21 45.480469 21 z"/></svg>