<svg xmlns="http://www.w3.org/2000/svg" width="2em" height="2em" viewBox="0 0 2048 2048"><path fill="#ffca10" d="M868 1461q65 33 117 81t90 108t57 128t20 142h-128q0-79-30-149t-82-122t-123-83t-149-30q-80 0-149 30t-122 82t-83 123t-30 149H128q0-73 20-141t57-128t89-108t118-82q-74-55-115-136t-41-173q0-79 30-149t82-122t122-83t150-30q92 0 173 41t136 115q38-75 97-134t134-97q-74-55-115-136t-41-173q0-79 30-149t82-122t122-83t150-30q79 0 149 30t122 82t83 123t30 149q0 92-41 173t-115 136q65 33 117 81t90 108t57 128t20 142h-128q0-79-30-149t-82-122t-123-83t-149-30q-80 0-149 30t-122 82t-83 123t-30 149q0 92-41 173t-115 136m284-1077q0 53 20 99t55 82t81 55t100 20q53 0 99-20t82-55t55-81t20-100q0-53-20-99t-55-82t-81-55t-100-20q-53 0-99 20t-82 55t-55 81t-20 100m-768 768q0 53 20 99t55 82t81 55t100 20q53 0 99-20t82-55t55-81t20-100q0-53-20-99t-55-82t-81-55t-100-20q-53 0-99 20t-82 55t-55 81t-20 100m1504 896l-288-225l-288 225l116-360l-276-216h345l103-320l103 320h345l-276 216z"/></svg>