<svg xmlns="http://www.w3.org/2000/svg" width="2em" height="2em" viewBox="0 0 24 24"><g fill="none" stroke="#ffca10" stroke-linecap="round" stroke-linejoin="round" stroke-width="1.5"><path d="M1.874 17.625a2.625 2.625 0 1 0 5.25 0a2.625 2.625 0 0 0-5.25 0"/><path d="M8.249 23.25a4.25 4.25 0 0 0-7.5 0m16.125-5.625a2.625 2.625 0 1 0 5.25 0a2.625 2.625 0 0 0-5.25 0"/><path d="M23.249 23.25a4.25 4.25 0 0 0-7.5 0M9.374 3.375a2.625 2.625 0 1 0 5.25 0a2.625 2.625 0 0 0-5.25 0m5.874 4.875a4.27 4.27 0 0 0-6.5 0m.302 11.457a8.28 8.28 0 0 0 5.944-.018M6.348 6a8.22 8.22 0 0 0-2.6 6c0 .253.015.5.038.75m16.425 0c.022-.248.038-.5.038-.75a8.22 8.22 0 0 0-2.6-6"/></g></svg>