<!DOCTYPE svg PUBLIC "-//W3C//DTD SVG 1.1//EN" "http://www.w3.org/Graphics/SVG/1.1/DTD/svg11.dtd">
<!-- Uploaded to: SVG Repo, www.svgrepo.com, Transformed by: SVG Repo Mixer Tools -->
<svg fill="#D4D4D8" version="1.1" id="Layer_1" xmlns="http://www.w3.org/2000/svg" xmlns:xlink="http://www.w3.org/1999/xlink" viewBox="0 0 491.52 491.52" xml:space="preserve" width="800px" height="800px" stroke="#D4D4D8">
<g id="SVGRepo_bgCarrier" stroke-width="0"/>
<g id="SVGRepo_tracerCarrier" stroke-linecap="round" stroke-linejoin="round"/>
<g id="SVGRepo_iconCarrier"> <g> <g> <path d="M40.96,122.88v174.08h194.56V122.88H40.96z M198.201,143.36l-59.961,52.906L78.279,143.36H198.201z M61.44,155.809 l61.326,54.111L61.44,264.031V155.809z M78.279,276.48l59.961-52.906l59.961,52.906H78.279z M215.04,264.031l-61.326-54.111 l61.326-54.111V264.031z"/> </g> </g> <g> <g> <path d="M256,122.88v174.08h194.56V122.88H256z M413.241,143.36l-59.961,52.906l-59.961-52.906H413.241z M276.48,155.809 l61.326,54.111l-61.326,54.111V155.809z M293.319,276.48l59.961-52.906l59.961,52.906H293.319z M430.08,264.031l-61.326-54.111 l61.326-54.111V264.031z"/> </g> </g> <g> <g> <path d="M0,0v491.52h491.52V0H0z M471.04,471.04H20.48V102.4h450.56V471.04z M471.04,81.92H20.48V20.48h450.56V81.92z"/> </g> </g> <g> <g> <rect x="430.08" y="40.96" width="20.48" height="20.48"/> </g> </g> <g> <g> <rect x="389.12" y="40.96" width="20.48" height="20.48"/> </g> </g> <g> <g> <rect x="348.16" y="40.96" width="20.48" height="20.48"/> </g> </g> <g> <g> <rect x="51.2" y="40.96" width="245.76" height="20.48"/> </g> </g> <g> <g> <path d="M40.96,317.44v133.12h122.88V317.44H40.96z M143.36,430.08H61.44v-92.16h81.92V430.08z"/> </g> </g> <g> <g> <path d="M184.32,317.44v133.12H307.2V317.44H184.32z M286.72,430.08H204.8v-92.16h81.92V430.08z"/> </g> </g> <g> <g> <path d="M327.68,317.44v133.12h122.88V317.44H327.68z M348.16,430.08v-92.16h81.92v92.16H348.16z"/> </g> </g> </g>
</svg>